<svg xmlns="http://www.w3.org/2000/svg" width="100.704" height="70.986" viewBox="0 0 100.704 70.986"><path fill="#C5C2BF" d="M23.79 45.884h-5.58L16.5 41.77H7.214l-1.55 4.114H.176l8.38-20.78h6l9.236 20.78h-.002zM11.632 30.067l-3.05 8.078h6.4l-3.35-8.078zm32.41-4.964h4.51v20.78h-5.178V32.906l-5.61 6.518h-.79l-5.61-6.518v12.98h-5.18V25.102h4.52l6.667 7.713 6.672-7.713zm17.627 0c7.592 0 11.483 4.73 11.483 10.418 0 5.976-3.775 10.364-12.054 10.364h-8.596v-20.78h9.166zM57.68 42.07h3.38c5.217 0 6.766-3.528 6.766-6.575 0-3.566-1.92-6.582-6.82-6.582h-3.325v13.16-.002zM94.177 30.037H83.462l-6.537-6.527h23.78v23.773l-6.53-6.53V30.038h.002zM83.457 40.76v-9.41l-6.726 6.725v9.402h9.41l6.724-6.716h-9.408z"/></svg>