<svg xmlns="http://www.w3.org/2000/svg" width="71.319" height="70.986" viewBox="0 0 71.319 70.986"><g fill="#C5C2BF"><path d="M34.536-.077c.736 0 1.474 0 2.212 0 10.76.607 18.43 4.69 24.118 10.418 5.687 5.728 9.892 13.278 10.453 24.083 0 .715 0 1.428 0 2.14-.547 10.98-4.826 18.224-10.454 24.12-5.913 5.6-13.183 9.842-24.154 10.38-.726 0-1.45 0-2.176 0-10.76-.606-18.43-4.69-24.118-10.417C4.73 54.92.526 47.368-.036 36.563c0-.713 0-1.426 0-2.14.028-.01.04-.03.036-.073.538-10.764 4.765-18.393 10.418-24.045C16.098 4.625 23.848.51 34.536-.077zm-6.993 5.1c-2.12.57-4.02 1.29-5.744 2.142-5.246 2.594-9.57 6.305-12.595 11.06-2.952 4.644-5.51 10.616-5.138 18.446.233 4.94 1.36 9.09 3.14 12.632 3.514 6.988 8.864 12.14 16.27 15.27 3.66 1.547 8.197 2.633 13.307 2.39 4.9-.233 9.147-1.335 12.665-3.105 6.895-3.467 12.33-8.816 15.34-16.197 1.524-3.732 2.677-8.047 2.428-13.27-.472-9.9-4.498-16.61-9.812-21.73-2.63-2.53-5.796-4.686-9.526-6.242-3.62-1.513-8.332-2.632-13.38-2.392-2.48.118-4.82.426-6.957.998zM32.36 26.253c1.13.748 2.286 1.47 3.353 2.283-2.41 1.514-4.773 3.074-7.17 4.602.362.28.776.508 1.14.785 2.418-1.53 4.836-3.06 7.244-4.602 1.08.67 2.144 1.355 3.14 2.106-2.413 1.523-4.744 3.13-7.136 4.674.355.287.79.496 1.18.748 2.47-1.512 4.88-3.086 7.312-4.64 0-1.687 0-3.376 0-5.065 1.784 0 3.567 0 5.352 0 0 3.367 0 6.732 0 10.098 1.51.085 3.176.015 4.745.038 0 1.582 0 3.162 0 4.744-3.367 0-6.73 0-10.098 0 0-1.605 0-3.21 0-4.816-2.967 1.803-6.007 3.84-8.99 5.744-3.107-2.018-6.103-4.148-9.206-6.172-.898 2.848-3.032 4.99-6.563 5.244-2.203.158-4.706-.117-7.243 0 0-4.96 0-9.918 0-14.88 3.172.212 6.654-.423 9.17.358 2.223.69 3.8 2.465 4.53 4.674 3.104-1.948 6.158-3.948 9.24-5.92zm-17.84 5.672c0 1.785 0 3.568 0 5.354 1.276.005 2.245.08 2.998-.5 1.12-.864 1.346-3 .356-4.14-.66-.76-1.773-.92-3.317-.82-.042.005-.04.054-.036.105zM52.91 27.144c1.784 0 3.566 0 5.35 0 0 3.38 0 6.756 0 10.135 1.57 0 3.142 0 4.712 0 0 1.58 0 3.16 0 4.743-3.366 0-6.73 0-10.098 0 0-4.924 0-9.848 0-14.77-.003-.053-.006-.104.036-.11z"/></g></svg>