<svg xmlns="http://www.w3.org/2000/svg" width="78.606" height="70.986" viewBox="0 0 78.606 70.986"><path fill="#C5C2BF" d="M21.093 45.484c-.67-.23-1.594-.377-2.1-.492-.272-.066-.43-.146-.43-.342 0-.156.182-.303.606-.303.334 0 .564.11.57.443h2.346c0-1.24-1.24-1.643-2.88-1.643-1.933 0-3.046.62-3.046 1.717 0 .68.363 1.172 1.37 1.416l1.862.438c.25.06.444.164.444.357 0 .232-.25.432-.633.432-.25 0-.413-.06-.51-.17-.104-.11-.14-.254-.14-.402H16.05c0 1.375 1.46 1.777 3.05 1.777 1.867 0 3.187-.547 3.187-1.842.002-.64-.363-1.112-1.194-1.386zm7.06-2.2h-3.84v5.28h2.613V46.79h.862c1.85 0 2.705-.716 2.705-1.77 0-.995-.745-1.735-2.34-1.735zm-1.098 2.31h-.128V44.48h.273c.572 0 .79.164.79.54 0 .373-.257.574-.935.574zm8.576-2.45c-2.28 0-3.415 1.138-3.415 2.784 0 1.648 1.138 2.785 3.416 2.785 2.28 0 3.417-1.137 3.417-2.785 0-1.646-1.137-2.785-3.416-2.785v.002zm0 4.188c-.398 0-.704-.184-.704-1.404 0-1.197.285-1.41.705-1.41s.706.213.706 1.41c0 1.22-.304 1.404-.705 1.404zm10.328-1.436v-.012c.99-.188 1.314-.656 1.314-1.256 0-1.004-.84-1.344-2.258-1.344h-3.908v5.28h2.564v-1.878h.298c.427 0 .59.105.644.365.09.458.177 1.126.328 1.515h2.565c-.298-.795-.285-1.535-.433-1.992-.127-.4-.48-.633-1.117-.676h.003zm-2.066-.412h-.22V44.48h.244c.51 0 .845.086.845.475 0 .397-.363.53-.868.53zm5.087-.777h1.628l-.002 3.86h2.615v-3.86h1.63v-1.422h-5.873v1.422h.002zm12.498.777c-.664-.23-1.588-.377-2.1-.492-.27-.066-.425-.146-.425-.342 0-.156.183-.303.602-.303.335 0 .566.11.578.443h2.347c0-1.24-1.24-1.643-2.888-1.643-1.935 0-3.04.62-3.04 1.717 0 .68.358 1.172 1.373 1.416l1.86.438c.25.06.438.164.438.357 0 .232-.248.432-.63.432-.25 0-.416-.06-.513-.17-.102-.11-.14-.254-.14-.402h-2.51c0 1.375 1.47 1.777 3.056 1.777 1.873 0 3.192-.547 3.192-1.842.002-.64-.368-1.112-1.2-1.386zM16.6 41.922V22.137h11.92l.37 5.41h-6.674v2.582h5.434v5.397h-5.47v6.395H16.6zm46.08-.026l-5.963-10.273 5.416-9.463H56.17l-2.48 4.268-2.425-4.268H45.09l5.52 9.53-5.84 10.222h5.99l2.858-5.004 2.9 4.988h6.162zm-33.947-9.84c0-5.32 4.224-9.622 9.433-9.622 5.203 0 9.428 4.303 9.428 9.62 0 5.315-4.224 9.626-9.427 9.626-5.21 0-9.434-4.31-9.434-9.623v-.002zM39.86 36v-7.896c0-.906-.79-1.715-1.67-1.715s-1.6.81-1.6 1.716l-.006 7.877c0 .9.725 1.635 1.605 1.635s1.67-.71 1.67-1.616zm32.32.547C71.457 47.38 57.385 56.03 40 56.243v2.473c20.8-.22 37.65-9.963 38.573-22.168H72.18zM38.536 56.243c-17.3-.27-31.285-8.9-32.004-19.695H0c.91 12.2 17.754 21.934 38.536 22.167v-2.473zm0-43.974C17.403 12.508.333 22.594-.03 35.084h6.547c.49-10.924 14.57-19.727 32.02-19.986V12.27zm1.465 0v2.824c17.537.21 31.706 9.03 32.198 19.99h6.408C78.233 22.586 61.153 12.496 40 12.27z"/></svg>