<svg xmlns="http://www.w3.org/2000/svg" width="126" height="70.986" viewBox="0 0 126 70.986"><path fill="#C5C2BF" d="M126 34.707v-2.224h-2.73v-3.458l-.092.03-2.564.793-.05.015v2.62h-4.046v-1.46c0-.68.15-1.2.445-1.546.294-.342.714-.518 1.25-.518.387 0 .785.09 1.188.273l.1.046v-2.345l-.046-.018c-.375-.136-.885-.205-1.516-.205-.797 0-1.52.176-2.15.524-.633.348-1.13.844-1.477 1.476-.347.63-.52 1.36-.52 2.166v1.604h-1.9v2.224h1.9v9.37h2.728v-9.37h4.047v5.955c0 2.45 1.143 3.695 3.397 3.695.37 0 .76-.044 1.158-.13.405-.09.682-.178.844-.27l.036-.02V41.69l-.11.074c-.15.1-.333.183-.55.242-.217.062-.398.094-.54.094-.526 0-.918-.145-1.16-.428-.245-.287-.37-.79-.37-1.49v-5.475H126zM105.793 42.1c-.99 0-1.77-.333-2.322-.986-.55-.658-.83-1.597-.83-2.788 0-1.23.278-2.19.833-2.86.55-.665 1.324-1.003 2.3-1.003.945-.002 1.698.32 2.237.957.542.64.817 1.594.817 2.838 0 1.26-.26 2.227-.77 2.873-.506.642-1.268.97-2.264.97zm.12-9.896c-1.888 0-3.39.56-4.46 1.666s-1.61 2.634-1.61 4.545c0 1.817.528 3.277 1.572 4.34 1.044 1.065 2.465 1.604 4.224 1.604 1.83 0 3.302-.57 4.37-1.69 1.07-1.118 1.612-2.633 1.612-4.5 0-1.843-.51-3.315-1.513-4.37-1.005-1.058-2.417-1.594-4.196-1.594v-.002zm-10.47 0c-1.286 0-2.35.333-3.16.99-.82.66-1.233 1.525-1.233 2.57 0 .545.09 1.03.265 1.44.18.41.453.772.816 1.076.364.302.92.616 1.66.94.62.258 1.086.477 1.38.65.288.167.49.337.607.502.113.163.17.385.17.658 0 .78-.577 1.158-1.764 1.158-.44 0-.94-.094-1.492-.277-.548-.183-1.06-.446-1.525-.783l-.113-.08v2.656l.042.02c.387.18.873.333 1.446.45.573.12 1.093.183 1.545.183 1.396 0 2.52-.335 3.338-.994.826-.664 1.244-1.55 1.244-2.634 0-.78-.226-1.45-.67-1.992-.44-.536-1.204-1.028-2.27-1.463-.85-.344-1.395-.63-1.62-.85-.215-.214-.325-.514-.325-.894 0-.34.135-.61.413-.828.28-.22.67-.33 1.16-.33.455 0 .92.072 1.384.215.46.14.867.332 1.205.565l.11.077v-2.522l-.04-.02c-.313-.136-.726-.25-1.227-.345-.5-.095-.95-.14-1.346-.14zM83.936 42.1c-.99 0-1.77-.33-2.322-.985-.553-.658-.834-1.596-.834-2.788 0-1.23.28-2.192.836-2.86.55-.666 1.324-1.002 2.3-1.002.944-.003 1.698.32 2.237.956.543.64.818 1.596.818 2.84 0 1.26-.26 2.226-.77 2.873-.505.64-1.267.967-2.265.967zm.123-9.895c-1.892 0-3.392.56-4.462 1.666-1.07 1.105-1.613 2.635-1.613 4.546 0 1.817.53 3.277 1.574 4.34 1.042 1.065 2.464 1.605 4.22 1.605 1.832 0 3.304-.567 4.373-1.69 1.07-1.117 1.61-2.63 1.61-4.5 0-1.84-.507-3.312-1.51-4.37-1.005-1.056-2.417-1.592-4.196-1.592l.002-.003zm-10.217 2.288v-2.01h-2.696v11.594h2.696v-5.93c0-1.01.226-1.838.673-2.463.44-.618 1.026-.93 1.742-.93.243 0 .516.04.81.12.294.08.505.165.63.257l.113.083v-2.75l-.042-.02c-.25-.105-.605-.16-1.056-.16-.676 0-1.282.22-1.8.652-.457.38-.787.904-1.04 1.556h-.026l-.003.003zm-7.523-2.29c-1.236 0-2.34.27-3.278.798-.94.53-1.667 1.288-2.162 2.25-.49.96-.74 2.08-.74 3.33 0 1.097.24 2.103.718 2.99.48.886 1.16 1.58 2.02 2.06.857.48 1.85.726 2.946.726 1.28 0 2.375-.26 3.252-.77l.034-.02v-2.5l-.112.083c-.397.292-.84.525-1.32.693-.475.168-.91.254-1.29.254-1.058 0-1.906-.336-2.523-.994-.617-.662-.93-1.59-.93-2.758 0-1.176.325-2.127.97-2.83.64-.7 1.49-1.056 2.528-1.056.887 0 1.75.3 2.567.9l.112.084V32.81l-.036-.02c-.308-.175-.728-.32-1.247-.428-.52-.105-1.027-.16-1.51-.16zm-8.04.28h-2.694v11.594h2.695V32.483zm-1.32-4.94c-.442 0-.83.154-1.147.457-.32.304-.48.687-.48 1.138 0 .443.16.82.477 1.114.314.293.703.443 1.153.443.452 0 .843-.15 1.16-.444.32-.296.48-.67.48-1.114 0-.436-.157-.814-.47-1.125-.31-.31-.703-.47-1.17-.47l-.003.003zm-6.724 4.085v12.45h2.75v-16.18H49.18l-4.84 12.017-4.697-12.018H35.68v16.18h2.586v-12.45h.09l4.96 12.45h1.948l4.883-12.45h.09zM13 34.493H0v-13h13v13zm15 0H15v-13h13v13zm-15 15H0v-13h13v13zm15 0H15v-13h13v13z"/></svg>