<svg xmlns="http://www.w3.org/2000/svg" width="133.01" height="70.986" viewBox="0 0 133.01 70.986"><path fill="#C5C2BF" d="M14.348 28.338c-.54 1.146-.322 2.08.485 2.1.808.007 1.903-.905 2.444-2.044.54-1.145.322-2.086-.478-2.1-.814-.006-1.91.906-2.452 2.044zm6.59-4.123c.006.007.014.007.014.015v.014c-.485 1.37-1.287 2.923-2.08 4.11-1.678 2.48-4.08 4.044-5.365 3.49-1.293-.547-.977-3.007.695-5.493.38-.56.787-1.073 1.213-1.522.008-.008.015-.008.015-.008 0-.015-.015-.027-.022-.027H15.4c-.52.076-1.06.175-1.593.314 0 0-.008 0-.015.008-5.646 6.932-8.056 15.935-7.726 23.963 0 .014-.007.02-.014.02h-.006C2.712 47.758.283 44.536.03 40.462l-.01-.05c-.42-7.25 5.36-14.68 12.91-16.59 2.93-.738 5.696-.548 8.008.393zM18.8 43.775c-.547.38-1.122.73-1.712 1.054h-.008c-.012 0-.02-.017-.02-.022-.113-1.742-.486-3.427-1.14-4.824-1.726-3.75-4.747-4.04-6.74-.646-1.224 2.07-1.786 5.05-1.63 7.9 0 .008.006.02.014.02 2.114.66 4.56.74 7.155.08 7.543-1.92 13.316-9.342 12.895-16.59-.366-6.358-5.387-10.473-11.715-10.094 0 0-.008.007-.015.007-.61.618-1.187 1.25-1.728 1.882-.006.008-.006.008-.006.016s.007.02.02.02c3.71-.47 6.68.28 8.62 1.828.006.007.013.014.013.014 0 .006-.007.014-.007.014-6.678 9.42-5.85 14.79-3.987 19.32v.008l-.01.012zm84.71-7.1c-1.023 1.032-1.797 2.97-1.797 4.51 0 1.354.5 2.196 1.37 2.196 1.397 0 2.598-1.46 3.013-3.594.09-.48.19-.963.253-1.4.07-.427.11-.806.1-1.072-.043-.914-.522-1.412-1.38-1.412-.513 0-1.05.272-1.56.772zm1.426 9.53s-.006-.007 0-.015l.317-1.614c0-.022-.015-.044-.035-.05-.022-.008-.028.006-.043.02-.703 1.195-2.086 1.96-3.632 1.96-2.555 0-3.708-2.26-3.708-4.53 0-2.57 1.01-5.12 2.702-6.812 1.414-1.42 3.246-2.17 5.29-2.17 1.56.007 2.71.454 3.436 1.334 1.067 1.293.976 3.237.71 4.65l-1.384 7.22c0 .007-.01.014-.016.014h-3.625s-.017 0-.017-.006h.003zm-23.81-13.21c1.58 0 2.747.344 3.31.667 0 0 .006.007.006.014l-.54 2.858c0 .007-.007.013-.007.013-.01 0-.023 0-.023 0-.637-.35-1.74-.715-2.93-.715-.99 0-1.642.415-1.642 1.11 0 .498.5.946 1.553 1.46 1.363.682 2.906 1.69 2.906 3.525 0 1.194-.398 2.192-1.182 2.964-1.045 1.042-2.736 1.604-4.774 1.59-1.56-.03-3.147-.43-3.94-1.007 0 0-.008-.012 0-.02l.54-2.872c.007-.006.007-.014.015-.014.005-.008.013 0 .013 0 .85.533 2.52 1.104 3.743 1.104.95-.002 1.59-.438 1.59-1.14 0-.64-.45-1.08-1.596-1.644-1.818-.906-2.726-2.058-2.726-3.414 0-2.677 2.275-4.48 5.68-4.48l.002.003zm37.905.027c.972 0 1.962.17 2.644.45.016.005.016.015.016.02l-.584 3.077c-.01.006-.01.013-.017.013-.008.008-.016.008-.016 0-.59-.33-1.277-.49-2.1-.49-2.724 0-4.354 2.38-4.354 4.67 0 1.946 1.3 2.648 2.515 2.648 1.08 0 2.002-.24 3.177-.814.006 0 .012 0 .012 0 .014.007.014.015.014.02l-.604 3.163c0 .006 0 .006-.008.013-.887.427-2.263.688-3.674.688-3.316 0-5.45-2.08-5.45-5.296 0-4.647 3.624-8.16 8.427-8.16zm-59.19 0c.97 0 1.96.17 2.64.45.015.005.015.015.015.02l-.584 3.077c0 .006-.005.013-.013.013-.006.008-.013.008-.013 0-.597-.33-1.276-.49-2.092-.49-2.733 0-4.362 2.38-4.362 4.67 0 1.946 1.3 2.648 2.514 2.648 1.082 0 2.002-.24 3.174-.814.01 0 .016 0 .023 0 0 .007.007.015.007.02l-.604 3.163c0 .006 0 .006-.008.013-.893.427-2.26.688-3.672.688-3.316 0-5.45-2.08-5.45-5.296 0-4.65 3.622-8.162 8.427-8.162zm-20.56-.056c.227 0 .505.03.71.064.008.006.008.006.016.006 0 .007 0 .015 0 .015l-.738 3.714c0 .007 0 .015-.007.015-.006.007-.014.007-.014.007-.133-.03-.342-.063-.596-.063-2.606 0-3.625 2.55-4.018 4.65l-.92 4.95c-.008.01-.014.015-.02.015h-3.8l-.01-.007c-.006 0-.006-.01-.006-.015l2.48-13.043c0-.008.007-.015.015-.015h3.343c.008 0 .016 0 .016.007v.008l-.422 2.248c-.008.015 0 .035.02.043.015.014.036 0 .05-.016.997-1.658 2.374-2.584 3.904-2.584zm5.038 3.708c-1.027 1.033-1.8 2.97-1.8 4.51 0 1.355.5 2.197 1.378 2.197 1.39 0 2.59-1.46 3.008-3.594.09-.48.19-.963.26-1.4.062-.427.104-.806.09-1.072-.042-.914-.52-1.412-1.368-1.412-.523 0-1.062.272-1.568.772zm1.424 9.532c-.006 0-.006-.008-.006-.016l.323-1.614c.006-.022-.01-.044-.035-.05-.016-.008-.04.006-.045.02-.703 1.195-2.084 1.96-3.638 1.96-2.55 0-3.694-2.26-3.7-4.53 0-2.57 1.01-5.12 2.702-6.812 1.42-1.42 3.245-2.17 5.29-2.17 1.56.007 2.71.454 3.434 1.334 1.067 1.293.977 3.237.71 4.65l-1.376 7.22c0 .007-.006.014-.022.014h-3.623c-.008 0-.008 0-.015-.006zm44.354-2.614c2.018 0 3.498-2.858 3.498-5.38 0-.61-.14-2.092-1.552-2.092-1.427 0-2.634 1.63-3.097 4.093-.164.845-.615 3.38 1.15 3.38zm3.3-10.597c2.545 0 4.187 1.924 4.187 4.923 0 3.146-1.51 6.37-4.235 7.823-2.48 1.32-4.69.74-5.388-.294h-.007l-.926 4.896c0 .015-.008.015-.015.015h-3.8c-.008 0-.008 0-.016 0 0-.008-.006-.015 0-.02l3.26-17.14c0-.013.008-.02.015-.02l3.338.007c.014 0 .014 0 .02 0 0 .006.008.014 0 .02l-.33 1.742c-.006.02 0 .043.015.05.02.013.043.006.058-.015l.014-.02c.982-1.26 2.36-1.966 3.812-1.965zm-28.45-4.27h3.77c.007 0 .007.007.007.007.016.006.016.013.016.013l-1.975 10.353.007.008c.006.006.012.006.02 0l5.064-5.838c0-.008.006-.008.006-.008H76c.007 0 .015 0 .022.016v.006c0 .008 0 .008-.008.015l-5.248 5.914 3.203 6.954s0 0 0 .008c0 .007 0 .007-.01.015 0 0-.005 0-.013 0h-4.082c-.006 0-.014 0-.014-.008l-3.102-6.87c0-.007-.007-.013-.015-.013 0 0-.006.006-.014.013l-1.3 6.87c-.008.007-.008.007-.022.007h-3.765c-.013 0-.013 0-.02 0 0-.008 0-.008 0-.02l3.308-17.428c.01-.007.01-.015.02-.015h.005zm64.46 8.167c0-.666-.547-1.088-1.377-1.088-1.637 0-2.69 1.327-2.993 2.577l-.012.04h.055c2.22.024 3.47-.21 4.02-.75.21-.21.31-.463.31-.778h-.004zm-.9-3.897c2.7 0 4.504 1.572 4.504 3.896 0 1.075-.352 1.962-1.04 2.636-1.265 1.23-3.638 1.79-7.27 1.707h-.048l.006.043c.007.37.14.904.38 1.242.497.625 1.376.97 2.465.97 1.595 0 2.97-.388 4.474-1.25 0-.007.014 0 .014 0 .01.007.017.014.017.02l-.604 3.177c-.008.008-.008.014-.016.014-1.824.927-3.968 1.032-4.803 1.032-3.567 0-5.604-1.987-5.604-5.45 0-1.994.73-3.996 2.008-5.492 1.405-1.636 3.365-2.542 5.52-2.542l-.002-.003z"/></svg>