<svg xmlns="http://www.w3.org/2000/svg" width="100.001" height="70.986" viewBox="0 0 100.001 70.986"><path fill="#C5C2BF" d="M2.09 50.36H.8c-.566 0-.8-.433-.8-.847 0-.424.292-.838.8-.838h4.367c.507 0 .803.414.803.838 0 .414-.238.847-.804.847H3.87v6.114c0 .61-.376.95-.89.95-.507 0-.89-.34-.89-.948V50.36zm4.223-1.42c0-.584.352-.976.852-.976s.848.393.848.975v2.393h.022c.36-.452 1.02-.612 1.557-.612 1.335 0 2.333.878 2.333 2.363v3.362c0 .588-.35.98-.85.98s-.86-.393-.86-.98v-3.053c0-.825-.5-1.217-1.11-1.217-.696 0-1.092.527-1.092 1.215v3.053c0 .588-.348.98-.848.98s-.852-.393-.852-.98v-7.506.002zm7.955 5.752c.117.866.815 1.267 1.607 1.267.882 0 1.49-.704 1.93-.704.37 0 .707.37.707.748 0 .764-1.52 1.488-2.79 1.488-1.917 0-3.194-1.434-3.194-3.376 0-1.782 1.257-3.396 3.054-3.396 1.853 0 3.07 1.727 3.07 3.19 0 .52-.22.78-.75.78h-3.634zm2.68-1.172c-.097-.762-.573-1.344-1.367-1.344-.754 0-1.266.604-1.35 1.344h2.718zm10.512-3.773c0 .476-.3.897-.792.897-.484 0-.86-.36-1.572-.36-.505 0-.968.278-.968.793 0 1.25 3.95.444 3.95 3.592 0 1.743-1.395 2.823-3.03 2.823-.91 0-2.88-.218-2.88-1.36 0-.474.31-.867.792-.867.558 0 1.22.476 1.997.476s1.205-.454 1.205-1.05c0-1.434-3.96-.574-3.96-3.395 0-1.707 1.366-2.772 2.938-2.772.668 0 2.32.258 2.32 1.225v-.003zm5.126-1.226c.866 0 2.543.298 2.543 1.37 0 .438-.303.815-.74.815-.478 0-.814-.423-1.805-.423-1.47 0-2.226 1.277-2.226 2.77 0 1.443.765 2.688 2.226 2.688.99 0 1.395-.515 1.88-.515.53 0 .78.553.78.832 0 1.17-1.788 1.435-2.66 1.435-2.41 0-4.076-1.964-4.076-4.485 0-2.526 1.66-4.483 4.076-4.483v-.003zm3.152 4.488c0-2.527 1.668-4.484 4.082-4.484 2.38 0 4.074 2.018 4.074 4.484 0 2.52-1.644 4.485-4.072 4.485-2.408 0-4.082-1.964-4.082-4.485h-.002zm6.308 0c0-1.47-.74-2.8-2.226-2.8-1.482 0-2.23 1.33-2.23 2.8 0 1.487.727 2.81 2.23 2.81 1.507 0 2.227-1.323 2.226-2.81zm2.246 0c0-2.527 1.66-4.484 4.08-4.484 2.38 0 4.077 2.018 4.077 4.484 0 2.52-1.655 4.485-4.078 4.485-2.415 0-4.08-1.964-4.08-4.485zm6.306 0c0-1.47-.75-2.8-2.225-2.8-1.482 0-2.232 1.33-2.232 2.8 0 1.487.73 2.81 2.234 2.81 1.497 0 2.226-1.322 2.226-2.81h-.002zm4.002-2.65h-1.285c-.572 0-.808-.43-.808-.845 0-.424.293-.838.808-.838h4.353c.515 0 .81.414.81.838 0 .414-.236.847-.81.847h-1.292v6.114c0 .61-.373.95-.89.95-.505 0-.886-.34-.886-.948V50.36zm4.265-.626c0-.613.293-1.06.925-1.06h2.937c.57 0 .844.417.844.84 0 .415-.284.847-.843.847h-2.084v1.77h1.944c.58 0 .867.417.867.84s-.302.846-.867.846h-1.944v1.85h2.192c.567 0 .847.416.847.847 0 .407-.285.838-.846.838h-3.06c-.522 0-.91-.37-.91-.913v-6.705zm5.485-.107c0-.58.32-.95.906-.95h2.085c1.83 0 2.96.837 2.96 2.75 0 1.34-.983 2.11-2.196 2.307l2.02 2.22c.163.18.236.363.236.527 0 .477-.375.944-.89.944-.213 0-.508-.09-.69-.317l-2.637-3.278h-.02v2.644c0 .61-.374.95-.88.95-.52 0-.89-.34-.89-.948v-6.85h-.003zm1.77 2.883h1.22c.654 0 1.102-.4 1.102-1.084 0-.688-.447-1.064-1.1-1.064h-1.22v2.148h-.002zm12.982-2.76c0 .475-.316.896-.8.896-.485 0-.866-.36-1.58-.36-.505 0-.968.278-.968.793 0 1.25 3.957.444 3.957 3.592 0 1.742-1.394 2.822-3.03 2.822-.91 0-2.877-.218-2.877-1.36 0-.474.31-.868.793-.868.56 0 1.22.477 1.99.477.787 0 1.212-.453 1.212-1.05 0-1.434-3.957-.573-3.957-3.395 0-1.707 1.36-2.77 2.938-2.77.66 0 2.328.257 2.328 1.224l-.004-.003zm1.733 2.654h-.374c-.46 0-.75-.294-.75-.766 0-.44.317-.765.75-.765h.377v-1.05c0-.59.358-.98.858-.98.49 0 .852.392.852.98v1.05h.482c.433 0 .813.204.813.766 0 .54-.38.767-.814.767h-.485v4.042c0 .588-.36.98-.852.98-.5 0-.86-.393-.86-.98v-4.04l.002-.003zm8.955 1.714c0 1.836-1.216 3.376-3.05 3.376s-3.055-1.54-3.055-3.376c0-1.782 1.254-3.396 3.055-3.396 1.797 0 3.053 1.613 3.053 3.396h-.003zm-4.41 0c0 .847.433 1.77 1.358 1.77.924 0 1.35-.92 1.35-1.77 0-.837-.42-1.79-1.35-1.79-.94 0-1.36.953-1.36 1.79h.002zm5.11-2.444c0-.58.453-.875.88-.875.446 0 .825.166.825.725h.022c.323-.484.66-.725 1.195-.725.413 0 .832.3.832.936 0 .57-.515.602-1.022.85-.506.243-1.027.477-1.027 1.172v2.69c0 .588-.36.98-.855.98-.5 0-.85-.393-.85-.98v-4.773zm5.127 3.02c.125.866.814 1.267 1.615 1.267.873 0 1.475-.704 1.93-.704.367 0 .7.37.7.748 0 .764-1.52 1.488-2.785 1.488-1.923 0-3.2-1.434-3.2-3.376 0-1.782 1.255-3.396 3.055-3.396 1.85 0 3.07 1.727 3.07 3.19 0 .52-.22.78-.74.78h-3.645v.002zm2.68-1.172c-.096-.762-.566-1.344-1.365-1.344-.756 0-1.27.604-1.35 1.344h2.715zM70.043 40.977c0-2.72 2.143-4.93 4.793-4.93s4.8 2.21 4.8 4.93c0 2.727-2.15 4.95-4.8 4.95s-4.793-2.224-4.793-4.95zm-37.223 0c0-2.72 2.147-4.93 4.797-4.93 2.652 0 4.795 2.21 4.795 4.93 0 2.727-2.143 4.95-4.795 4.95-2.65 0-4.797-2.224-4.797-4.95zM45.173 21.83h6.07V19.86H44.33c-.223-7.388-6.52-6.315-6.52-6.315l3.068 15.397h5.373v2.363h-7.287v3.16l.14.18c2.714.672 4.757 3.157 4.845 6.135H68.51l3.075-5.916h6.902v-2.764h-6.902l-6.915-14.21h-5.373v1.58h4.613l5.75 13.023-3.07 5.128H54.312v-4.34l-1.922-1.974h-3.457v-2.364h5.762V24.21h-9.103l-.42-2.38z"/><path fill="none" stroke="#C5C2BF" d="M34.736 13.547l3.453 14.995h-2.304v5.14s-8.39 1.51-4.22 10.656m-.762-30.79l3.45 14.996h-2.298v5.14s-8.408 1.51-4.23 10.656m-.762-30.793l3.45 14.997h-2.298v5.14s-8.398 1.51-4.22 10.656"/></svg>